<svg xmlns="http://www.w3.org/2000/svg" enable-background="new 0 0 66 66" viewBox="0 0 66 66" id="TieFighter">
  <path d="M56.57501 27.37656l-6.15002-2.70001c-2.41998-7-8.92999-12.09003-16.66998-12.40997v-1.54004l2.08002-2.08002c.28998-.28998.28998-.75995 0-1.06-.29004-.28998-.77002-.28998-1.06 0L33.005 9.35654l-1.77002-1.77002c-.28998-.28998-.76996-.28998-1.06 0-.28998.30005-.28998.77002 0 1.06l2.08002 2.09003v1.53003c-7.73999.31-14.26001 5.39996-16.67999 12.39996l-6.15002 2.71002V12.23654H3.935v39h5.48999v-17.13l6.20001 2.72003c2.46002 6.92999 8.94 11.94995 16.63 12.25995v1.55005l-2.08002 2.07001c-.28998.29999-.28998.76996 0 1.06.29004.29999.77002.29999 1.06 0l1.77002-1.77002 1.77002 1.77002c.29247.29247.76516.29472 1.06 0 .28998-.29004.28998-.76001 0-1.06L33.755 50.62656v-1.54004c7.67999-.31 14.15997-5.32996 16.62-12.25995l6.20001-2.72003v17.13H62.065v-39h-5.48999V27.37656zM33.005 44.07657c-7.39001 0-13.40002-6.01001-13.40002-13.40002 0-7.38 6.01001-13.39001 13.40002-13.39001 7.38 0 13.39001 6.01001 13.39001 13.39001C46.39502 38.06656 40.38501 44.07657 33.005 44.07657zM56.57501 57.11655c0 1.51001 1.22998 2.73999 2.73999 2.73999s2.75-1.22998 2.75-2.73999v-4.38h-5.48999V57.11655zM59.315 3.61655c-1.51001 0-2.73999 1.22998-2.73999 2.75v4.37189H62.065V6.36655C62.065 4.84653 60.82501 3.61655 59.315 3.61655zM3.935 57.11655c0 1.51001 1.22998 2.73999 2.75 2.73999 1.51001 0 2.73999-1.22998 2.73999-2.73999v-4.38H3.935V57.11655zM9.42499 6.36655c0-1.52002-1.22998-2.75-2.73999-2.75-1.52002 0-2.75 1.22998-2.75 2.75v4.37189h5.48999V6.36655z" fill="#1b1745" class="color000000 svgShape"></path>
  <path d="M27.19501 30.67654c0-1.28998.45001-2.5 1.21997-3.52002l-4.32996-4.32001c-1.85004 2.09003-2.98004 4.84003-2.98004 7.84003 0 3.01001 1.13 5.75 2.98004 7.84998l4.32996-4.31995C27.64502 33.18655 27.19501 31.96652 27.19501 30.67654zM33.005 26.37656c-1.15002 0-2.22998.44-3.04999 1.25 0 0 0 0 0 .01001-.81.82001-1.26001 1.89996-1.26001 3.03998s.45001 2.22998 1.27002 3.04999c.79999.81 1.88995 1.26001 3.03998 1.26001 1.14996 0 2.22998-.45001 3.04999-1.26001.81-.82001 1.26001-1.90997 1.26001-3.04999s-.45001-2.21997-1.27002-3.04999C35.23499 26.81656 34.15497 26.37656 33.005 26.37656zM33.005 36.48654c-1.29999 0-2.52002-.44-3.53003-1.21997l-4.32996 4.31995c2.09998 1.85004 4.83997 2.99005 7.85999 2.99005 3.01001 0 5.75-1.14001 7.84998-2.99005l-4.32996-4.31995C35.51501 36.04654 34.30499 36.48654 33.005 36.48654zM33.005 24.87656c1.29999 0 2.52002.44 3.52002 1.21997l4.32996-4.32996c-2.09998-1.85004-4.83997-2.98004-7.84998-2.98004-3.02002 0-5.76001 1.13-7.85999 2.98999l4.32996 4.32001C30.48499 25.31656 31.70502 24.87656 33.005 24.87656zM37.58502 27.15652c.77997 1.02002 1.22998 2.23999 1.22998 3.52002 0 1.28998-.45001 2.51001-1.22998 3.53003l4.32996 4.31995c1.85004-2.09998 2.98004-4.83997 2.98004-7.84998s-1.13-5.75-2.98004-7.84998L37.58502 27.15652zM41.44867 52.1188c-.41406 0-.75.33594-.75.75v7.30322c0 .41406.33594.75.75.75s.75-.33594.75-.75V52.8688C42.19867 52.45474 41.86273 52.1188 41.44867 52.1188zM51.86566 42.23746c-.41406 0-.75.33594-.75.75V52.048c0 .41406.33594.75.75.75s.75-.33594.75-.75v-9.06055C52.61566 42.57339 52.27972 42.23746 51.86566 42.23746zM13.32367 50.62857c-.41406 0-.75.33594-.75.75v10.25488c0 .41406.33594.75.75.75s.75-.33594.75-.75V51.37857C14.07367 50.96451 13.73773 50.62857 13.32367 50.62857zM22.82367 48.8356c-.41406 0-.75.33594-.75.75v3.58594c0 .41406.33594.75.75.75s.75-.33594.75-.75V49.5856C23.57367 49.17154 23.23773 48.8356 22.82367 48.8356zM21.49066 58.19888c-.41406 0-.75.33594-.75.75v1.69775c0 .41406.33594.75.75.75s.75-.33594.75-.75v-1.69775C22.24066 58.53482 21.90472 58.19888 21.49066 58.19888zM47.61566 53.97672c-.41406 0-.75.33594-.75.75v3.55859c0 .41406.33594.75.75.75s.75-.33594.75-.75v-3.55859C48.36566 54.31265 48.02972 53.97672 47.61566 53.97672z" fill="#1b1745" class="color000000 svgShape"></path>
</svg>
